<svg id="Layer_1" data-name="Layer 1" xmlns="http://www.w3.org/2000/svg" viewBox="0 0 149.99 149.99"><title>education</title><circle cx="75" cy="75" r="75" style="fill:#0080be"/><path d="M363.68,286.24H285.22c-0.34-.12-0.67-0.25-1-0.35a11.63,11.63,0,0,1-8.41-11.05q0-35.34,0-70.68a11.6,11.6,0,0,1,11.5-11.46h63.54c0.32,0,.64,0,1,0v76H289.05c-0.67,0-1.34,0-2,.06a5.8,5.8,0,0,0-5.19,7.15c0.74,2.89,3,4.48,6.38,4.48h68.48c0.32,0,.64,0,1.06-0.06V204.47h5.81v1.33q0,39.59,0,79.18C363.59,285.39,363.65,285.82,363.68,286.24Zm-17.74-23.36V198.63H287.58v64.24h58.36Z" transform="translate(-244.46 -165.01)" style="fill:#fff"/><path d="M299.25,210.17v-5.7h35v5.7h-35Z" transform="translate(-244.46 -165.01)" style="fill:#fff"/><path d="M299.25,221.88v-5.7h23.31v5.7H299.25Z" transform="translate(-244.46 -165.01)" style="fill:#fff"/><path d="M299.29,227.84h11.55v5.76H299.29v-5.76Z" transform="translate(-244.46 -165.01)" style="fill:#fff"/></svg>