<svg id="Layer_1" data-name="Layer 1" xmlns="http://www.w3.org/2000/svg" viewBox="0 0 172.86 172.86"><title>htb_logo</title><circle cx="86.43" cy="86.43" r="84.43" style="fill:#fff;stroke:#0e6766;stroke-width:4px"/><circle cx="86.43" cy="86.43" r="72.23" style="fill:none;stroke:#169998;stroke-width:6px"/><path d="M99.56,86.78V114H54V86.78H47.56L45.48,82,74.79,50.68l2.08-2.21,2.08,2.21L108.25,82l-2.08,4.81H99.56ZM95.46,53.84H88.27v4l7.18,7.67V53.84Z" transform="translate(-14.07 -17.57)" style="fill:#0e6766;fill-rule:evenodd"/><rect x="62.8" y="69.21" width="49.35" height="30.16" style="fill:#fff"/><path d="M91.81,113.66v-9.51H85.59v9.51h-6V88.76h6V98.2h6.23V88.76H97.9v24.9H91.81Z" transform="translate(-14.07 -17.57)" style="fill:#0e6766"/><path d="M113.16,108.2h6a11.72,11.72,0,0,1-2.19,3.12,9.21,9.21,0,0,1-3,2,9.59,9.59,0,0,1-3.73.72h-0.14a9.59,9.59,0,0,1-4.94-1.34,9.9,9.9,0,0,1-3.6-3.61,9.61,9.61,0,0,1-1.32-4.92q0-.17,0-0.56t0-.56a9,9,0,0,1,1-3.5,9.71,9.71,0,0,1,2.25-2.81,10.4,10.4,0,0,1,3.11-1.84,9.92,9.92,0,0,1,3.55-.65,10.75,10.75,0,0,1,2.66.35,9.47,9.47,0,0,1,3.64,2A9.75,9.75,0,0,1,119,99.94a15.83,15.83,0,0,1,1.05,6.23h-14.2a4.47,4.47,0,0,0,1.22,2,4.11,4.11,0,0,0,2.13.92,2.83,2.83,0,0,1,.51.07,2.68,2.68,0,0,0,.47.07A5.58,5.58,0,0,0,113.16,108.2Zm-7.42-5.88h8.75a4.32,4.32,0,0,0-1.81-2.23,5.12,5.12,0,0,0-2.73-.78,5,5,0,0,0-1.85.35,4,4,0,0,0-1.53,1A3.39,3.39,0,0,0,105.74,102.33Z" transform="translate(-14.07 -17.57)" style="fill:#169998"/><path d="M122.32,88.76h5.46v24.9h-5.46V88.76Z" transform="translate(-14.07 -17.57)" style="fill:#169998"/><path d="M136.66,111.42v8.33h-5.53V94.84h5.25V97a10.63,10.63,0,0,1,3.14-2,7.64,7.64,0,0,1,2.24-.35,10.43,10.43,0,0,1,3.08.49,8.46,8.46,0,0,1,3.37,2,9.68,9.68,0,0,1,2.22,3.29,10,10,0,0,1,.78,3.86,9,9,0,0,1-1.37,4.81,10.31,10.31,0,0,1-3.54,3.5,8.52,8.52,0,0,1-4.39,1.29A6.73,6.73,0,0,1,136.66,111.42Zm-0.21-7.21-0.07.14a4.47,4.47,0,0,0,.61,2.29,4.54,4.54,0,0,0,1.64,1.65,4.29,4.29,0,0,0,2.23.61l0.07,0.07a4.54,4.54,0,0,0,2.33-.65,5,5,0,0,0,1.76-1.73,4.39,4.39,0,0,0-1.81-6.33,5.27,5.27,0,0,0-2.29-.52,4.87,4.87,0,0,0-2.18.51,4,4,0,0,0-1.66,1.52A4.53,4.53,0,0,0,136.46,104.22Z" transform="translate(-14.07 -17.57)" style="fill:#169998"/><path d="M57.5,130H55.28v-4H57.5v-5.84h5.38V126h2.5v4h-2.5v14.12H57.5V130Z" transform="translate(-14.07 -17.57)" style="fill:#179a99"/><path d="M65.63,135a9,9,0,0,1,.77-3.71,9.43,9.43,0,0,1,2.12-3,9.8,9.8,0,0,1,6.73-2.7,13.33,13.33,0,0,1,1.61.07,9,9,0,0,1,4,1.81A9.8,9.8,0,0,1,83.66,131a10,10,0,0,1,1,4.38v0.67a9.13,9.13,0,0,1-1.57,4.35,9.44,9.44,0,0,1-3.45,3.07,9.58,9.58,0,0,1-4.53,1.11,9.25,9.25,0,0,1-4.77-1.28A9.52,9.52,0,0,1,65.63,135Zm5.24,0.07a4.29,4.29,0,0,0,.57,2.15A4.43,4.43,0,0,0,73,138.88a4.06,4.06,0,0,0,2.17.61,3.93,3.93,0,0,0,2.13-.61,4.47,4.47,0,0,0,1.54-1.62,4.31,4.31,0,0,0,.57-2.15,4.53,4.53,0,0,0-1.05-2.94,4,4,0,0,0-2.7-1.49H75.11a3.87,3.87,0,0,0-2.1.62,4.53,4.53,0,0,0-1.56,1.64A4.36,4.36,0,0,0,70.88,135.11Z" transform="translate(-14.07 -17.57)" style="fill:#179a99"/><path d="M97.37,144.12V120.19h8.13q5.82,0,7.06,4a7.64,7.64,0,0,1,0,4,5.16,5.16,0,0,1-2.69,2.89,5.55,5.55,0,0,1,3.7,3.23,7,7,0,0,1,.4,2.42,10,10,0,0,1-.21,2,7,7,0,0,1-1.52,2.88,6.58,6.58,0,0,1-2.64,1.89,8.71,8.71,0,0,1-2.17.44q-1.19.1-2.87,0.1H97.37ZM103,129.46l0.54,0,0.6,0q3.43,0,3.43-1.95v-0.27a1.75,1.75,0,0,0-1-1.74,6.59,6.59,0,0,0-2.54-.41h-1v4.3Zm0,9.68,0.78,0,0.83,0a5.72,5.72,0,0,0,2.66-.52,2.16,2.16,0,0,0,1-2.11v-0.26a1.87,1.87,0,0,0-1.07-1.83,6.45,6.45,0,0,0-2.63-.46H103v5.11Z" transform="translate(-14.07 -17.57)" style="fill:#179a99"/><path d="M127.09,126h5.17v18.09h-4.91V141.7a6.15,6.15,0,0,1-5.31,2.76h-0.4a6.28,6.28,0,0,1-4.44-2.22,6.63,6.63,0,0,1-1.21-4.31V126h5.31v9.82a6.07,6.07,0,0,0,.5,2.72,2.08,2.08,0,0,0,2.05,1l0.14-.07a2.88,2.88,0,0,0,2.33-1,4.15,4.15,0,0,0,.76-2.6V126Z" transform="translate(-14.07 -17.57)" style="fill:#179a99"/><path d="M141.88,150h-5.31l2.69-7L132.67,126h5.85l3.42,10.49L145.78,126h5.72Z" transform="translate(-14.07 -17.57)" style="fill:#179a99"/></svg>