<svg id="Layer_1" data-name="Layer 1" xmlns="http://www.w3.org/2000/svg" viewBox="0 0 248.7 48.76"><title>logo-white</title><path d="M89.2,7.2h7.9c5.1,0,7.6,2.7,6.8,6.8a5.57,5.57,0,0,1-.9,1.9,4.68,4.68,0,0,1-3.2,1.9l6,9.9H99.6L95,19.1v8.7H89.3V7.2H89.2Zm6.6,8.3c1.6,0,2.1-.5,2.3-1.8,0.2-1.9-.5-2.7-2.1-2.7H95v4.5h0.8Z" transform="translate(-5.7 -6.1)" style="fill:#fff"/><path d="M105.9,12.8l4.9-.4V22.6c0.1,1.2,1.2,1.9,2.7,1.2l0.2-.1,0.1-.1V12.8h4.9v15H114l-0.1-.7-0.3.1-0.3.2c-4,1.8-7,.1-7.3-2.8,0-.3-0.1-0.7-0.1-1V12.8Z" transform="translate(-5.7 -6.1)" style="fill:#fff"/><path d="M121.2,23.7c0.5,0.1,1.1.3,1.6,0.4,3.2,0.6,4.2-.1,4.3-0.8a0.91,0.91,0,0,0-.7-0.8l-0.5-.2-0.3-.1-0.2-.1-1-.3c-0.2-.1-0.4-0.1-0.6-0.2-2.6-1-3.8-3-3.2-5.4,0.7-3,4.1-4.8,10.5-3.3l0.5,0.1,0.5,0.1-0.9,3.6a14.62,14.62,0,0,0-2-.5,6.41,6.41,0,0,0-3.4-.1,0.65,0.65,0,0,0-.3,1.1,0.93,0.93,0,0,0,.7.4l0.7,0.2L127,18l0.9,0.3,1.3,0.5c2.7,1,3.7,2.9,3.1,5.6-0.7,2.9-3.7,4.6-9.8,3.5a14.62,14.62,0,0,1-2-.5Z" transform="translate(-5.7 -6.1)" style="fill:#fff"/><path d="M134.2,23.7c0.5,0.1,1.1.3,1.6,0.4,3.2,0.6,4.2-.1,4.3-0.8a0.91,0.91,0,0,0-.7-0.8l-0.5-.2-0.3-.1-0.2-.1-1-.3c-0.2-.1-0.4-0.1-0.6-0.2-2.6-1-3.8-3-3.2-5.4,0.7-3,4.1-4.8,10.5-3.3l0.5,0.1,0.5,0.1-0.9,3.6a14.62,14.62,0,0,0-2-.5,6.41,6.41,0,0,0-3.4-.1,0.65,0.65,0,0,0-.3,1.1,0.93,0.93,0,0,0,.7.4l0.7,0.2,0.1,0.1,0.9,0.3,1.3,0.5c2.7,1,3.7,2.9,3.1,5.6-0.7,2.9-3.7,4.6-9.8,3.5a14.62,14.62,0,0,1-2-.5Z" transform="translate(-5.7 -6.1)" style="fill:#fff"/><path d="M151.9,22c0,0.1.1,0.3,0.1,0.4,0.5,1.6,2.3,2.6,5.3,1.9a4.33,4.33,0,0,1,.5-0.1l0.4-.1,0.3-.1,0.8,3.3-0.3.1-0.3.1a12.82,12.82,0,0,1-2.7.5c-6,.5-9.2-2.3-9.3-7.8-0.1-4.6,2.1-7.3,5.7-7.8,4.7-.6,7.5,2.1,7.4,8.1a6.6,6.6,0,0,1-.1,1.4h-7.8V22Zm3.1-3V18.3a3.12,3.12,0,0,0-.7-2,1.62,1.62,0,0,0-2.5.3,3.32,3.32,0,0,0-.4,1.3,2.2,2.2,0,0,0-.1.8v0.4H155V19Z" transform="translate(-5.7 -6.1)" style="fill:#fff"/><path d="M161.2,7.2l4.9-.4V27.7h-4.9V7.2Z" transform="translate(-5.7 -6.1)" style="fill:#fff"/><path d="M168.2,7.2l4.9-.4V27.7h-4.9V7.2Z" transform="translate(-5.7 -6.1)" style="fill:#fff"/><path d="M186.8,7.2H194l5.2,20.6h-5.8l-1.1-5.2h-3.9l-1.1,5.2h-5.8Zm4.9,11.5-1-4.9c-0.1-.5-0.2-1.4-0.3-2.2,0-.3-0.1-0.7-0.1-1a3.4,3.4,0,0,1-.1,1c-0.1.8-.2,1.6-0.3,2.2l-1,4.9h2.8Z" transform="translate(-5.7 -6.1)" style="fill:#fff"/><path d="M199.4,12.8l4.9-.3v1.2c0.1-.1.2-0.1,0.3-0.2a4.72,4.72,0,0,1,3.1-1.1,0.6,0.6,0,0,1,.4.1l-0.4,4.3a0.6,0.6,0,0,1-.4-0.1,7,7,0,0,0-2.5.1l-0.3.1-0.3.1V27.8h-4.9v-15h0.1Z" transform="translate(-5.7 -6.1)" style="fill:#fff"/><path d="M208.6,12.8l4.9-.4v1l0.2-.1,0.3-.1c2.8-1.4,5.5-.7,6.5.7,0.3-.2.5-0.3,0.8-0.5s0.5-.3.8-0.4c4.1-1.7,6.9.1,7,3.3V27.7h-4.9V19a2.81,2.81,0,0,0-.1-1.1c-0.1-1.2-1.3-1.8-2.6-1.1-0.1.1-.2,0.1-0.3,0.2V27.8h-4.9v-10c-0.1-1.2-1.3-1.8-2.6-1.1a0.35,0.35,0,0,0-.2.1V27.6h-4.9V12.8Z" transform="translate(-5.7 -6.1)" style="fill:#fff"/><path d="M236.4,22c0,0.1.1,0.3,0.1,0.4,0.5,1.6,2.3,2.6,5.3,1.9a4.33,4.33,0,0,1,.5-0.1l0.4-.1L243,24l0.8,3.3-0.3.1-0.3.1a12.82,12.82,0,0,1-2.7.5c-6,.5-9.2-2.3-9.3-7.8-0.1-4.6,2.1-7.3,5.7-7.8,4.7-.6,7.5,2.1,7.4,8.1a6.6,6.6,0,0,1-.1,1.4h-7.8V22Zm3.2-3V18.3a3.12,3.12,0,0,0-.7-2,1.62,1.62,0,0,0-2.5.3,3.32,3.32,0,0,0-.4,1.3,2.2,2.2,0,0,0-.1.8v0.4h3.7V19Z" transform="translate(-5.7 -6.1)" style="fill:#fff"/><path d="M245.7,12.8l4.9-.3v1.2c0.1-.1.2-0.1,0.3-0.2a4.72,4.72,0,0,1,3.1-1.1,0.6,0.6,0,0,1,.4.1L254,16.8a0.6,0.6,0,0,1-.4-0.1,7,7,0,0,0-2.5.1l-0.3.1-0.3.1V27.8h-4.9v-15h0.1Z" transform="translate(-5.7 -6.1)" style="fill:#fff"/><path d="M89.2,33.9h2.3v9h8.3v-9h2.3V54.5H99.8v-10H91.5v10H89.2V33.9Z" transform="translate(-5.7 -6.1)" style="fill:#fff"/><path d="M110.9,39.9c4,0,6.5,2.9,5.9,8.8-0.4,4.1-2.5,6.1-5.9,6.1-3.7,0-6-2.4-6-7.4S107.2,39.9,110.9,39.9Zm-3.6,8.4c0.3,3.4,1.6,4.8,3.7,4.8s3.4-1.4,3.7-4.8a5.44,5.44,0,0,0,0-1.8c-0.3-3.4-1.6-4.8-3.7-4.8s-3.4,1.4-3.7,4.8v0.9A1.38,1.38,0,0,0,107.3,48.3Z" transform="translate(-5.7 -6.1)" style="fill:#fff"/><path d="M119.8,40.3l2.1-.3v1.1l0.3-.2,0.3-.2c2.7-1.6,5.6-.9,6.8.9l0.3-.3a14,14,0,0,1,1.6-1c3.4-1.5,6.5.2,6.7,2.9,0,0.4.1,0.8,0.1,1.2v9.8h-2.1V44.1c-0.1-1.8-1.7-2.9-3.8-2.3a3.55,3.55,0,0,0-.9.4,14.63,14.63,0,0,0-1.3.9V54.4h-2.1V44c-0.1-1.7-1.7-2.9-3.8-2.3l-0.9.3a8.34,8.34,0,0,0-1.2.8V54.3h-2.1v-14Z" transform="translate(-5.7 -6.1)" style="fill:#fff"/><path d="M143.2,48a1.7,1.7,0,0,0,.1.7c0.5,3.6,3.3,5.2,7.5,3.7l0.4-.1,0.3-.1,0.4,1.7-0.3.1-0.4.1c-0.2.1-.4,0.1-0.6,0.2-6,1.4-9.6-1.3-9.7-7.1-0.1-4.4,2-6.9,5-7.3,3.9-.5,6.5,1.9,6.6,6.9a3.75,3.75,0,0,1-.1,1.1h-9.2V48Zm7-1.5V46c-0.1-3.2-1.7-4.7-4.1-4.3-1.7.3-2.8,1.7-3,4.3v0.5h7.1Z" transform="translate(-5.7 -6.1)" style="fill:#fff"/><path d="M154.8,51.9c0.2,0.1.3,0.1,0.5,0.2a7.24,7.24,0,0,0,4.1.7,3.92,3.92,0,0,0,1.4-.4,1.61,1.61,0,0,0,.4-2.7,3.46,3.46,0,0,0-1.2-.9c-0.2-.1-0.3-0.2-0.5-0.3l-1.1-.6-0.3-.1a15.13,15.13,0,0,1-2.8-1.8,3.3,3.3,0,0,1,.6-5.3,7.76,7.76,0,0,1,6.3-.4c0.2,0.1.5,0.1,0.7,0.2l0.5,0.2,0.4,0.2-0.7,1.7a2.57,2.57,0,0,0-.5-0.2c-4.1-1.6-6.2-.3-6.2,1.2a1.79,1.79,0,0,0,1.1,1.7l0.6,0.3,0.4,0.2,1.2,0.7,1.4,0.8c2.6,1.4,3.3,2.7,2.7,4.7-0.8,2.4-4.1,3.9-9.2,2-0.2-.1-0.3-0.1-0.5-0.2Z" transform="translate(-5.7 -6.1)" style="fill:#fff"/><polygon points="32.8 0 17.7 8.1 17.7 13.5 32.8 5.4 47.9 13.5 47.9 8.1 32.8 0" style="fill:#fff"/><rect x="30.2" y="13.2" width="5.2" height="11.4" style="fill:#fff"/><polygon points="15.1 23.4 0 31.5 0 36.9 15.1 28.8 30.2 36.9 30.2 31.5 15.1 23.4" style="fill:#fff"/><rect x="12.5" y="36.6" width="5.2" height="11.4" style="fill:#fff"/><polygon points="50.6 23.4 35.5 31.5 35.5 36.9 50.6 28.8 65.7 36.9 65.7 31.5 50.6 23.4" style="fill:#fff"/><rect x="48" y="36.6" width="5.2" height="11.4" style="fill:#fff"/></svg>