<svg id="Layer_1" data-name="Layer 1" xmlns="http://www.w3.org/2000/svg" viewBox="0 0 21.83 21.83"><defs><style>.cls-1{fill:#0080be;}.cls-2{fill:#fff;}</style></defs><title>Untitled-3</title><circle class="cls-1" cx="10.91" cy="10.91" r="10.91"/><path class="cls-2" d="M100.88,93.09a7.44,7.44,0,0,1,2.9.61l-.69,1.71a5.52,5.52,0,0,0-2-.48,1.17,1.17,0,0,0-.89.33,1.33,1.33,0,0,0-.31.95v1.44h2.79v1.63H99.86v1.06a1.94,1.94,0,0,1-1.12,1.85h5.35v1.94h-7.8v-1.85a2.35,2.35,0,0,0,1.05-.75,2.07,2.07,0,0,0,.29-1.17V99.28H96.29V97.65h1.33V96.2a3,3,0,0,1,.85-2.3A3.37,3.37,0,0,1,100.88,93.09Z" transform="translate(-89.24 -88.42)"/></svg>