<svg id="Layer_1" data-name="Layer 1" xmlns="http://www.w3.org/2000/svg" viewBox="0 0 149.99 149.99"><title>public-transport</title><circle cx="75" cy="75" r="75" style="fill:#814a97"/><path d="M351.22,210.37H288.61v-7.85a2.62,2.62,0,0,1,2.62-2.62h57.36a2.63,2.63,0,0,1,2.62,2.62v7.85Zm0,39.69a65.22,65.22,0,0,1-29,8V218.09h29v32Zm-3.93,19a5.41,5.41,0,1,1,5.43-5.35,5.42,5.42,0,0,1-5.43,5.35m-29.68-11a64.38,64.38,0,0,1-29-8v-32h29V258Zm-25.06,11a5.41,5.41,0,1,1,5.43-5.35,5.4,5.4,0,0,1-5.43,5.35m58.6-76.88H288.63a7.8,7.8,0,0,0-7.79,7.83V270.3a7.81,7.81,0,0,0,7.79,7.83V286a2.59,2.59,0,0,0,2.6,2.57H299a2.62,2.62,0,0,0,2.64-2.57v-7.83h36.46V286a2.58,2.58,0,0,0,2.6,2.57h7.8a2.58,2.58,0,0,0,2.62-2.57v-7.83A7.81,7.81,0,0,0,359,270.3V200a7.8,7.8,0,0,0-7.81-7.83" transform="translate(-244.45 -165)" style="fill:#fff"/></svg>