<svg id="Layer_1" data-name="Layer 1" xmlns="http://www.w3.org/2000/svg" viewBox="0 0 21.83 21.83"><defs><style>.cls-1{fill:#72bb6f;}.cls-2{fill:#fff;}</style></defs><title>school</title><circle class="cls-1" cx="10.91" cy="10.91" r="10.91"/><path class="cls-2" d="M325.43,245.85h-9.71l-0.12,0a1.44,1.44,0,0,1-1-1.37q0-4.37,0-8.74a1.43,1.43,0,0,1,1.42-1.42h8v9.41h-8a0.72,0.72,0,0,0-.64.88,0.73,0.73,0,0,0,.79.55h8.6v-9.4h0.72v0.16q0,4.9,0,9.8C325.42,245.75,325.42,245.8,325.43,245.85ZM323.23,243V235H316V243h7.22Z" transform="translate(-309.08 -229.42)"/><path class="cls-2" d="M317.46,236.44v-0.7h4.33v0.7h-4.33Z" transform="translate(-309.08 -229.42)"/><path class="cls-2" d="M317.46,237.89v-0.71h2.88v0.71h-2.88Z" transform="translate(-309.08 -229.42)"/><path class="cls-2" d="M317.46,238.63h1.43v0.71h-1.43v-0.71Z" transform="translate(-309.08 -229.42)"/></svg>