<svg id="Layer_1" data-name="Layer 1" xmlns="http://www.w3.org/2000/svg" viewBox="0 0 21.83 21.83"><defs><style>.cls-1{fill:#f39200;}.cls-2{fill:#fff;}</style></defs><title>sports</title><circle class="cls-1" cx="10.91" cy="10.91" r="10.91"/><path class="cls-2" d="M313.53,242.52a1.66,1.66,0,0,1,.12-0.27,0.66,0.66,0,0,1,.59-0.29h2.25a0.2,0.2,0,0,0,.17-0.08L320,238l0.08-.1h-0.82a0.19,0.19,0,0,0-.16.08l-1.49,1.73a0.54,0.54,0,0,1-.54.21,0.51,0.51,0,0,1-.29-0.82l1.77-2a0.55,0.55,0,0,1,.44-0.2h2.42a0.76,0.76,0,0,1,.56.24l1.46,1.46,0.08,0.08,0.08-.08c0.39-.39.79-0.77,1.16-1.17a0.54,0.54,0,0,1,.93.22l0,0v0.18a0.81,0.81,0,0,1-.23.35c-0.12.11-.23,0.23-0.35,0.35-0.39.39-.78,0.79-1.18,1.18a0.57,0.57,0,0,1-.88,0l-0.85-.85-0.08-.08-1.53,1.78,0.1,0.07,1.24,1.24a0.76,0.76,0,0,1,.22.76c-0.26,1.19-.53,2.38-0.8,3.57a0.69,0.69,0,0,1-.33.48l-0.22.1h-0.2l0,0a0.66,0.66,0,0,1-.51-0.82q0.3-1.38.62-2.76a0.16,0.16,0,0,0-.06-0.18l-1.33-1.29c-0.06-.06-0.11-0.13-0.17-0.2l-0.09.1c-0.4.45-.81,0.89-1.2,1.34a1,1,0,0,1-.77.35h-2.87a0.71,0.71,0,0,1-.47-0.16,0.78,0.78,0,0,1-.24-0.42v-0.18Z" transform="translate(-309.03 -229.42)"/><path class="cls-2" d="M323.15,235.06a1.39,1.39,0,0,1,.55.26,1,1,0,0,1,0,1.52,1,1,0,0,1-1,.2,1,1,0,0,1-.66-0.84,1,1,0,0,1,.83-1.12l0.05,0h0.26Z" transform="translate(-309.03 -229.42)"/></svg>