<svg id="Layer_1" data-name="Layer 1" xmlns="http://www.w3.org/2000/svg" viewBox="0 0 149.99 149.99"><title>sports-leisure</title><circle cx="75" cy="75" r="75" style="fill:#f39200"/><path d="M266.25,257.22a14.06,14.06,0,0,1,1-2.27,5.57,5.57,0,0,1,5-2.44c6.36,0,12.71,0,19.07.06a1.71,1.71,0,0,0,1.47-.65q14.28-16.61,28.6-33.2l0.67-.81c-0.36,0-.6-0.06-0.84-0.06-2,0-4.08,0-6.12,0a1.61,1.61,0,0,0-1.39.64c-4.22,4.91-8.46,9.79-12.68,14.69a4.55,4.55,0,0,1-4.62,1.82,4.33,4.33,0,0,1-2.45-7c5-5.8,10-11.55,15-17.32a4.69,4.69,0,0,1,3.73-1.66l20.53,0a6.42,6.42,0,0,1,4.76,2c4.11,4.15,8.25,8.27,12.37,12.39,0.22,0.22.45,0.43,0.71,0.68,0.26-.25.49-0.46,0.71-0.67,3.3-3.29,6.68-6.5,9.87-9.89a4.56,4.56,0,0,1,7.92,1.89,0.73,0.73,0,0,0,.14.21v1.55a6.89,6.89,0,0,1-1.91,3c-1,1-2,2-3,3-3.33,3.34-6.61,6.73-10,10-2.41,2.33-5.1,2.22-7.45-.14l-7.18-7.21c-0.21-.21-0.44-0.41-0.69-0.64l-13,15.09a7.89,7.89,0,0,1,.83.62c3.52,3.51,7,7.06,10.57,10.53a6.48,6.48,0,0,1,1.85,6.46c-2.24,10.12-4.52,20.22-6.77,30.34a5.86,5.86,0,0,1-2.76,4.08,17,17,0,0,1-1.87.81h-1.73a1.91,1.91,0,0,0-.31-0.14,5.56,5.56,0,0,1-4.34-7q2.58-11.73,5.27-23.43a1.38,1.38,0,0,0-.47-1.5q-5.65-5.44-11.26-10.93c-0.51-.5-0.93-1.09-1.43-1.7l-0.77.83c-3.4,3.79-6.85,7.52-10.16,11.38a8.21,8.21,0,0,1-6.5,3c-8.13.06-16.26,0.08-24.4,0.11a6.05,6.05,0,0,1-4-1.35,6.6,6.6,0,0,1-2-3.6v-1.55Z" transform="translate(-244.45 -165.01)" style="fill:#fff"/><path d="M345.45,193.89a11.77,11.77,0,0,1,4.68,2.22,8.75,8.75,0,0,1,.09,12.91,8.34,8.34,0,0,1-8.9,1.72,8.5,8.5,0,0,1-5.6-7.16,8.74,8.74,0,0,1,7-9.52,3.38,3.38,0,0,0,.46-0.18h2.24Z" transform="translate(-244.45 -165.01)" style="fill:#fff"/></svg>