<svg id="Layer_1" data-name="Layer 1" xmlns="http://www.w3.org/2000/svg" viewBox="0 0 21.83 21.83"><defs><style>.cls-1{fill:#814a97;}.cls-2{fill:#fff;}</style></defs><title>transport</title><circle class="cls-1" cx="10.91" cy="10.91" r="10.91"/><path class="cls-2" d="M323.7,236.71h-7.5v-0.94a0.31,0.31,0,0,1,.31-0.31h6.87a0.32,0.32,0,0,1,.31.31v0.94Zm0,4.76a7.82,7.82,0,0,1-3.48,1v-4.79h3.48v3.83Zm-0.47,2.27a0.65,0.65,0,1,1,.65-0.64,0.65,0.65,0,0,1-.65.64m-3.56-1.32a7.71,7.71,0,0,1-3.48-1v-3.83h3.48v4.79Zm-3,1.32a0.65,0.65,0,1,1,.65-0.64,0.65,0.65,0,0,1-.65.64m7-9.21H316.2a0.93,0.93,0,0,0-.93.94v8.43a0.94,0.94,0,0,0,.93.94v0.94a0.31,0.31,0,0,0,.31.31h0.94a0.31,0.31,0,0,0,.32-0.31v-0.94h4.37v0.94a0.31,0.31,0,0,0,.31.31h0.93a0.31,0.31,0,0,0,.31-0.31v-0.94a0.94,0.94,0,0,0,.94-0.94v-8.43a0.93,0.93,0,0,0-.94-0.94" transform="translate(-309.03 -229.29)"/></svg>