<svg id="Layer_1" data-name="Layer 1" xmlns="http://www.w3.org/2000/svg" viewBox="0 0 157.09 147.4"><defs><style>.cls-1{fill:#fff;}</style></defs><title>virtual-icon-white</title><path class="cls-1" d="M314.62,316.2a7.66,7.66,0,0,1-1.85,5.19,9.59,9.59,0,0,1-5.19,2.94v0.13a10.38,10.38,0,0,1,6,2.39,6.71,6.71,0,0,1,2,5.14,8.7,8.7,0,0,1-3.41,7.32q-3.41,2.62-9.74,2.62a23.64,23.64,0,0,1-9.4-1.76v-5.86a21.26,21.26,0,0,0,4.17,1.56,17.53,17.53,0,0,0,4.5.6,8.75,8.75,0,0,0,5-1.16,4.25,4.25,0,0,0,1.63-3.72,3.36,3.36,0,0,0-1.87-3.25,13.85,13.85,0,0,0-6-1H298V322.1h2.52a11.7,11.7,0,0,0,5.54-1,3.58,3.58,0,0,0,1.75-3.4q0-3.7-4.63-3.7a10.6,10.6,0,0,0-3.26.53,15.94,15.94,0,0,0-3.69,1.85l-3.19-4.75a17.7,17.7,0,0,1,10.63-3.21,13.72,13.72,0,0,1,8,2A6.57,6.57,0,0,1,314.62,316.2Z" transform="translate(-263.92 -259.55)"/><path class="cls-1" d="M318.94,327.65q0-9.67,4.09-14.39t12.24-4.72a22.22,22.22,0,0,1,4.37.33v5.5a17.85,17.85,0,0,0-3.92-.45,13.46,13.46,0,0,0-5.78,1.07,7.19,7.19,0,0,0-3.35,3.16,14.53,14.53,0,0,0-1.31,5.95h0.29a7.56,7.56,0,0,1,7.06-3.79,8.74,8.74,0,0,1,6.84,2.74,10.9,10.9,0,0,1,2.47,7.57,11.37,11.37,0,0,1-2.94,8.25q-2.94,3-8.15,3a11.66,11.66,0,0,1-6.29-1.67,10.85,10.85,0,0,1-4.14-4.88A18.58,18.58,0,0,1,318.94,327.65Zm11.76,8.78a4.08,4.08,0,0,0,3.39-1.48,6.63,6.63,0,0,0,1.18-4.22,5.82,5.82,0,0,0-1.1-3.75,4,4,0,0,0-3.33-1.37,5.1,5.1,0,0,0-3.58,1.36,4.17,4.17,0,0,0-1.48,3.16,7.17,7.17,0,0,0,1.39,4.48A4.27,4.27,0,0,0,330.7,336.42Z" transform="translate(-263.92 -259.55)"/><path class="cls-1" d="M367.8,325.2q0,8.53-2.8,12.63t-8.61,4.1a9.59,9.59,0,0,1-8.5-4.23Q345,333.46,345,325.2q0-8.62,2.78-12.71t8.58-4.09a9.62,9.62,0,0,1,8.52,4.28Q367.8,317,367.8,325.2Zm-15.93,0q0,6,1,8.59a3.59,3.59,0,0,0,3.49,2.6,3.62,3.62,0,0,0,3.48-2.63q1.07-2.63,1.07-8.56t-1.08-8.61a3.61,3.61,0,0,0-6.94,0Q351.87,319.2,351.87,325.2Z" transform="translate(-263.92 -259.55)"/><path class="cls-1" d="M372.19,316a6.79,6.79,0,1,1,13.58,0,6.69,6.69,0,0,1-.89,3.39,6.6,6.6,0,0,1-2.48,2.47,6.75,6.75,0,0,1-3.42.92A6.72,6.72,0,0,1,372.19,316Zm2.51,0a4.07,4.07,0,0,0,1.27,3,4.21,4.21,0,0,0,3,1.24,4.28,4.28,0,1,0,0-8.57,4.18,4.18,0,0,0-3.06,1.24A4.13,4.13,0,0,0,374.7,316Z" transform="translate(-263.92 -259.55)"/><path class="cls-1" d="M294.59,362.31l-3.3-8.66h2.47l1.67,4.94a8.8,8.8,0,0,1,.35,1.77h0a7.7,7.7,0,0,1,.35-1.77l1.67-4.94h2.47l-3.3,8.66h-2.43Z" transform="translate(-263.92 -259.55)"/><path class="cls-1" d="M301.46,351.41a1.29,1.29,0,0,1,2.57,0,1.13,1.13,0,0,1-.32.86,1.35,1.35,0,0,1-1,.31A1.09,1.09,0,0,1,301.46,351.41Zm2.46,10.9h-2.36v-8.66h2.36v8.66Z" transform="translate(-263.92 -259.55)"/><path class="cls-1" d="M311.24,353.49a3.81,3.81,0,0,1,.8.07l-0.18,2.22a2.72,2.72,0,0,0-.7-0.08,2.51,2.51,0,0,0-1.76.58,2.1,2.1,0,0,0-.63,1.63v4.41H306.4v-8.66h1.79l0.35,1.46h0.12a3.26,3.26,0,0,1,1.09-1.17A2.68,2.68,0,0,1,311.24,353.49Z" transform="translate(-263.92 -259.55)"/><path class="cls-1" d="M317.26,360.58a5.11,5.11,0,0,0,1.49-.27v1.76a5.31,5.31,0,0,1-2.17.4,2.66,2.66,0,0,1-2.07-.72,3.12,3.12,0,0,1-.65-2.15v-4.18h-1.13v-1l1.3-.79,0.68-1.83h1.51v1.84h2.43v1.77h-2.43v4.18a0.92,0.92,0,0,0,.28.74A1.12,1.12,0,0,0,317.26,360.58Z" transform="translate(-263.92 -259.55)"/><path class="cls-1" d="M326.63,362.31l-0.32-1.11h-0.12a2.5,2.5,0,0,1-1.08.93,3.67,3.67,0,0,1-1.59.33,3,3,0,0,1-2.3-.82,3.29,3.29,0,0,1-.77-2.35v-5.65h2.36v5.06a2.43,2.43,0,0,0,.33,1.41,1.21,1.21,0,0,0,1.06.47,1.6,1.6,0,0,0,1.43-.66,4.11,4.11,0,0,0,.44-2.2v-4.08h2.36v8.66h-1.81Z" transform="translate(-263.92 -259.55)"/><path class="cls-1" d="M336.43,362.31L336,361.13h-0.06a3.5,3.5,0,0,1-1.23,1,4,4,0,0,1-1.65.29,2.66,2.66,0,0,1-2-.71,2.74,2.74,0,0,1-.72-2,2.29,2.29,0,0,1,1-2,5.59,5.59,0,0,1,2.91-.72l1.5,0v-0.38a1.18,1.18,0,0,0-1.35-1.32,6.14,6.14,0,0,0-2.44.63l-0.78-1.6a7,7,0,0,1,3.32-.78,4.13,4.13,0,0,1,2.67.76,2.81,2.81,0,0,1,.93,2.31v5.77h-1.65Zm-0.7-4-0.91,0a2.92,2.92,0,0,0-1.53.37,1.17,1.17,0,0,0-.5,1,1,1,0,0,0,1.15,1,1.82,1.82,0,0,0,1.31-.47,1.66,1.66,0,0,0,.49-1.26V358.3Z" transform="translate(-263.92 -259.55)"/><path class="cls-1" d="M342.88,362.31h-2.36V350.25h2.36v12.06Z" transform="translate(-263.92 -259.55)"/><path class="cls-1" d="M353.13,360.58a5.11,5.11,0,0,0,1.49-.27v1.76a5.31,5.31,0,0,1-2.17.4,2.66,2.66,0,0,1-2.07-.72,3.12,3.12,0,0,1-.65-2.15v-4.18H348.6v-1l1.3-.79,0.68-1.83h1.51v1.84h2.43v1.77H352.1v4.18a0.92,0.92,0,0,0,.28.74A1.12,1.12,0,0,0,353.13,360.58Z" transform="translate(-263.92 -259.55)"/><path class="cls-1" d="M364.24,358a4.66,4.66,0,0,1-1.12,3.31,4,4,0,0,1-3.11,1.19,4.35,4.35,0,0,1-2.2-.55,3.64,3.64,0,0,1-1.46-1.57,5.27,5.27,0,0,1-.51-2.39,4.63,4.63,0,0,1,1.11-3.3,4.07,4.07,0,0,1,3.12-1.18,4.38,4.38,0,0,1,2.2.54,3.62,3.62,0,0,1,1.46,1.56A5.22,5.22,0,0,1,364.24,358Zm-6,0a3.63,3.63,0,0,0,.42,1.95,1.51,1.51,0,0,0,1.38.66,1.49,1.49,0,0,0,1.36-.65,3.69,3.69,0,0,0,.41-1.95,3.58,3.58,0,0,0-.42-1.93,1.78,1.78,0,0,0-2.74,0A3.57,3.57,0,0,0,358.25,358Z" transform="translate(-263.92 -259.55)"/><path class="cls-1" d="M372.33,362.31L372,361.2h-0.12a2.5,2.5,0,0,1-1.08.93,3.67,3.67,0,0,1-1.59.33,3,3,0,0,1-2.3-.82,3.29,3.29,0,0,1-.77-2.35v-5.65h2.36v5.06a2.43,2.43,0,0,0,.33,1.41,1.21,1.21,0,0,0,1.06.47,1.6,1.6,0,0,0,1.43-.66,4.11,4.11,0,0,0,.44-2.2v-4.08h2.36v8.66h-1.81Z" transform="translate(-263.92 -259.55)"/><path class="cls-1" d="M381.46,353.49a3.81,3.81,0,0,1,.8.07l-0.18,2.22a2.72,2.72,0,0,0-.7-0.08,2.51,2.51,0,0,0-1.76.58,2.1,2.1,0,0,0-.63,1.63v4.41h-2.36v-8.66h1.79l0.35,1.46h0.12a3.26,3.26,0,0,1,1.09-1.17A2.68,2.68,0,0,1,381.46,353.49Z" transform="translate(-263.92 -259.55)"/><path class="cls-1" d="M421,337.1l-13.16-22.78L394.7,337.1h9.56a66.75,66.75,0,1,1-66.64-70.61v-6.94a73.7,73.7,0,1,0,73.6,77.55H421Z" transform="translate(-263.92 -259.55)"/></svg>