<svg id="Layer_1" data-name="Layer 1" xmlns="http://www.w3.org/2000/svg" viewBox="0 0 64.52 60.54"><defs><style>.cls-1{fill:#fff;}</style></defs><title>Untitled-3</title><path class="cls-1" d="M88.47,93.09a3.15,3.15,0,0,1-.76,2.13,3.94,3.94,0,0,1-2.13,1.21v.05a4.26,4.26,0,0,1,2.45,1,2.76,2.76,0,0,1,.83,2.11,3.57,3.57,0,0,1-1.4,3,6.46,6.46,0,0,1-4,1.08,9.71,9.71,0,0,1-3.86-.72v-2.41a8.73,8.73,0,0,0,1.71.64,7.2,7.2,0,0,0,1.85.25,3.6,3.6,0,0,0,2.07-.48,1.75,1.75,0,0,0,.67-1.53,1.38,1.38,0,0,0-.77-1.34,5.69,5.69,0,0,0-2.45-.39h-1V95.51h1A4.81,4.81,0,0,0,85,95.1a1.47,1.47,0,0,0,.72-1.4q0-1.52-1.9-1.52a4.36,4.36,0,0,0-1.34.22,6.55,6.55,0,0,0-1.51.76l-1.31-1.95A7.27,7.27,0,0,1,84,89.9a5.64,5.64,0,0,1,3.28.84A2.7,2.7,0,0,1,88.47,93.09Z" transform="translate(-67.65 -69.82)"/><path class="cls-1" d="M90.24,97.79q0-4,1.68-5.91a6.29,6.29,0,0,1,5-1.94,9.13,9.13,0,0,1,1.79.14v2.26a7.33,7.33,0,0,0-1.61-.18,5.53,5.53,0,0,0-2.37.44,3,3,0,0,0-1.38,1.3,6,6,0,0,0-.54,2.44H93a3.11,3.11,0,0,1,2.9-1.56,3.59,3.59,0,0,1,2.81,1.13,4.48,4.48,0,0,1,1,3.11,4.67,4.67,0,0,1-1.21,3.39,4.44,4.44,0,0,1-3.35,1.25,4.79,4.79,0,0,1-2.59-.69,4.46,4.46,0,0,1-1.7-2A7.63,7.63,0,0,1,90.24,97.79Zm4.83,3.61a1.68,1.68,0,0,0,1.39-.61A2.72,2.72,0,0,0,97,99.05a2.39,2.39,0,0,0-.45-1.54,1.65,1.65,0,0,0-1.37-.56,2.1,2.1,0,0,0-1.47.56,1.71,1.71,0,0,0-.61,1.3,2.94,2.94,0,0,0,.57,1.84A1.75,1.75,0,0,0,95.08,101.4Z" transform="translate(-67.65 -69.82)"/><path class="cls-1" d="M110.31,96.78a9.33,9.33,0,0,1-1.15,5.19,4,4,0,0,1-3.54,1.68,3.94,3.94,0,0,1-3.49-1.74A9.19,9.19,0,0,1,101,96.78a9.41,9.41,0,0,1,1.14-5.22,4.45,4.45,0,0,1,7,.08A9.21,9.21,0,0,1,110.31,96.78Zm-6.54,0a10.41,10.41,0,0,0,.43,3.53,1.47,1.47,0,0,0,1.43,1.07,1.49,1.49,0,0,0,1.43-1.08,10.12,10.12,0,0,0,.44-3.51,10.09,10.09,0,0,0-.44-3.54,1.48,1.48,0,0,0-2.85,0A10.39,10.39,0,0,0,103.77,96.78Z" transform="translate(-67.65 -69.82)"/><path class="cls-1" d="M112.12,93a2.79,2.79,0,1,1,5.58,0,2.75,2.75,0,0,1-.37,1.39,2.71,2.71,0,0,1-1,1,2.77,2.77,0,0,1-1.41.38A2.76,2.76,0,0,1,112.12,93Zm1,0a1.67,1.67,0,0,0,.52,1.24,1.73,1.73,0,0,0,1.25.51,1.76,1.76,0,1,0,0-3.52,1.72,1.72,0,0,0-1.26.51A1.7,1.7,0,0,0,113.15,93Z" transform="translate(-67.65 -69.82)"/><path class="cls-1" d="M80.24,112l-1.36-3.56h1l.69,2a3.62,3.62,0,0,1,.14.73h0a3.16,3.16,0,0,1,.14-.73l.68-2h1L81.24,112Z" transform="translate(-67.65 -69.82)"/><path class="cls-1" d="M83.06,107.55q0-.47.53-.47t.53.47a.46.46,0,0,1-.13.35.55.55,0,0,1-.4.13Q83.06,108,83.06,107.55Zm1,4.48h-1v-3.56h1Z" transform="translate(-67.65 -69.82)"/><path class="cls-1" d="M87.08,108.4a1.57,1.57,0,0,1,.33,0l-.07.91a1.12,1.12,0,0,0-.29,0,1,1,0,0,0-.72.24.86.86,0,0,0-.26.67V112h-1v-3.56h.74l.14.6h0a1.34,1.34,0,0,1,.45-.48A1.1,1.1,0,0,1,87.08,108.4Z" transform="translate(-67.65 -69.82)"/><path class="cls-1" d="M89.55,111.32a2.1,2.1,0,0,0,.61-.11v.72a2.18,2.18,0,0,1-.89.16,1.09,1.09,0,0,1-.85-.29,1.28,1.28,0,0,1-.27-.88V109.2h-.46v-.41l.53-.32.28-.75h.62v.76h1v.73h-1v1.72a.38.38,0,0,0,.12.31A.46.46,0,0,0,89.55,111.32Z" transform="translate(-67.65 -69.82)"/><path class="cls-1" d="M93.4,112l-.13-.46h-.05a1,1,0,0,1-.44.38,1.51,1.51,0,0,1-.65.14,1.24,1.24,0,0,1-.95-.34,1.35,1.35,0,0,1-.32-1v-2.32h1v2.08a1,1,0,0,0,.14.58.5.5,0,0,0,.44.19A.66.66,0,0,0,93,111a1.69,1.69,0,0,0,.18-.9v-1.67h1V112Z" transform="translate(-67.65 -69.82)"/><path class="cls-1" d="M97.43,112l-.19-.48h0a1.44,1.44,0,0,1-.5.43,1.63,1.63,0,0,1-.68.12,1.09,1.09,0,0,1-.81-.29,1.12,1.12,0,0,1-.29-.83.94.94,0,0,1,.4-.84,2.29,2.29,0,0,1,1.2-.3l.62,0v-.16a.48.48,0,0,0-.55-.54,2.52,2.52,0,0,0-1,.26l-.32-.66a2.89,2.89,0,0,1,1.36-.32,1.7,1.7,0,0,1,1.1.31,1.15,1.15,0,0,1,.38.95V112Zm-.29-1.65h-.38a1.2,1.2,0,0,0-.63.15.48.48,0,0,0-.21.43q0,.41.47.41a.75.75,0,0,0,.54-.19.68.68,0,0,0,.2-.52Z" transform="translate(-67.65 -69.82)"/><path class="cls-1" d="M100.08,112h-1v-5h1Z" transform="translate(-67.65 -69.82)"/><path class="cls-1" d="M104.29,111.32a2.1,2.1,0,0,0,.61-.11v.72a2.18,2.18,0,0,1-.89.16,1.09,1.09,0,0,1-.85-.29,1.28,1.28,0,0,1-.27-.88V109.2h-.46v-.41l.53-.32.28-.75h.62v.76h1v.73h-1v1.72a.38.38,0,0,0,.12.31A.46.46,0,0,0,104.29,111.32Z" transform="translate(-67.65 -69.82)"/><path class="cls-1" d="M108.85,110.24a1.91,1.91,0,0,1-.46,1.36,1.66,1.66,0,0,1-1.28.49,1.79,1.79,0,0,1-.9-.22,1.49,1.49,0,0,1-.6-.64,2.17,2.17,0,0,1-.21-1,1.9,1.9,0,0,1,.46-1.36,1.67,1.67,0,0,1,1.28-.48,1.8,1.8,0,0,1,.9.22,1.49,1.49,0,0,1,.6.64A2.15,2.15,0,0,1,108.85,110.24Zm-2.46,0a1.49,1.49,0,0,0,.17.8.62.62,0,0,0,.56.27.61.61,0,0,0,.56-.27,1.52,1.52,0,0,0,.17-.8,1.47,1.47,0,0,0-.17-.79.73.73,0,0,0-1.12,0A1.47,1.47,0,0,0,106.39,110.24Z" transform="translate(-67.65 -69.82)"/><path class="cls-1" d="M112.17,112l-.13-.46H112a1,1,0,0,1-.44.38,1.51,1.51,0,0,1-.65.14,1.24,1.24,0,0,1-.95-.34,1.35,1.35,0,0,1-.32-1v-2.32h1v2.08a1,1,0,0,0,.14.58.5.5,0,0,0,.44.19.66.66,0,0,0,.59-.27,1.69,1.69,0,0,0,.18-.9v-1.67h1V112Z" transform="translate(-67.65 -69.82)"/><path class="cls-1" d="M115.92,108.4a1.57,1.57,0,0,1,.33,0l-.07.91a1.12,1.12,0,0,0-.29,0,1,1,0,0,0-.72.24.86.86,0,0,0-.26.67V112h-1v-3.56h.74l.14.6h0a1.34,1.34,0,0,1,.45-.48A1.1,1.1,0,0,1,115.92,108.4Z" transform="translate(-67.65 -69.82)"/><path class="cls-1" d="M132.17,101.67l-5.4-9.36-5.4,9.36h3.93a27.42,27.42,0,1,1-27.37-29V69.82a30.27,30.27,0,1,0,30.23,31.85Z" transform="translate(-67.65 -69.82)"/></svg>